<svg width="72" height="73" viewBox="0 0 72 73" fill="none" xmlns="http://www.w3.org/2000/svg">
<path d="M36 0C28.8799 -8.60859e-08 21.9196 2.14069 15.9995 6.15136C10.0793 10.162 5.46511 15.8625 2.74035 22.532C0.0155995 29.2016 -0.697321 36.5405 0.691744 43.6208C2.08081 50.7011 5.50948 57.2048 10.5442 62.3094C15.5789 67.414 21.9934 70.8903 28.9767 72.2987C35.9601 73.707 43.1985 72.9842 49.7766 70.2216C56.3548 67.459 61.9772 62.7807 65.9329 56.7783C69.8886 50.7759 72 43.719 72 36.5H54C54 40.1095 52.9443 43.6379 50.9664 46.6392C48.9885 49.6404 46.1773 51.9795 42.8883 53.3607C39.5992 54.7421 35.98 55.1035 32.4884 54.3993C28.9967 53.6951 25.7894 51.957 23.2721 49.4047C20.7547 46.8524 19.0405 43.6006 18.3459 40.0604C17.6514 36.5202 18.0078 32.8508 19.3701 29.516C20.7326 26.1813 23.0396 23.331 25.9997 21.3257C28.9599 19.3204 32.4399 18.25 36 18.25V0Z" fill="#09FBFB"/>
<path d="M36 0C31.2724 -5.63759e-08 26.5911 0.931167 22.2233 2.74034C17.8557 4.5495 13.887 7.20125 10.5441 10.5441C7.20125 13.887 4.5495 17.8557 2.74034 22.2234C0.931166 26.5911 -7.13845e-07 31.2724 0 36H18C18 33.6363 18.4656 31.2956 19.3701 29.1117C20.2747 26.9278 21.6006 24.9435 23.2721 23.2721C24.9435 21.6006 26.9278 20.2747 29.1117 19.3701C31.2956 18.4656 33.6362 18 36 18V0Z" fill="#09FBFB"/>
<path d="M36 48C42.0751 48 47 42.8513 47 36.5C47 30.1487 42.0751 25 36 25C29.9249 25 25 30.1487 25 36.5C25 42.8513 29.9249 48 36 48Z" fill="#0CF3FC"/>
<path d="M47 36C47 34.5555 46.7155 33.1251 46.1626 31.7905C45.6099 30.4559 44.7996 29.2433 43.7781 28.2219C42.7567 27.2004 41.5441 26.3901 40.2095 25.8374C38.8749 25.2846 37.4446 25 36 25C34.5554 25 33.1251 25.2846 31.7905 25.8374C30.4559 26.3901 29.2433 27.2004 28.2219 28.2219C27.2004 29.2433 26.3901 30.4559 25.8374 31.7905C25.2846 33.1251 25 34.5555 25 36H36H47Z" fill="#1FEDE1"/>
</svg>
