<svg width="256" height="73" viewBox="0 0 256 73" fill="none" xmlns="http://www.w3.org/2000/svg">
<path d="M36 0C28.8799 -8.60859e-08 21.9196 2.14069 15.9995 6.15136C10.0793 10.162 5.46511 15.8625 2.74035 22.532C0.0155994 29.2016 -0.697321 36.5405 0.691744 43.6208C2.08081 50.7011 5.50948 57.2048 10.5442 62.3094C15.5789 67.414 21.9934 70.8903 28.9767 72.2987C35.9601 73.707 43.1985 72.9842 49.7766 70.2216C56.3548 67.459 61.9772 62.7807 65.9329 56.7783C69.8886 50.7759 72 43.719 72 36.5H54C54 40.1095 52.9443 43.6379 50.9664 46.6392C48.9885 49.6404 46.1773 51.9795 42.8883 53.3607C39.5992 54.7421 35.98 55.1035 32.4884 54.3993C28.9967 53.6951 25.7894 51.957 23.2721 49.4047C20.7547 46.8524 19.0405 43.6006 18.3459 40.0604C17.6514 36.5202 18.0078 32.8508 19.3701 29.516C20.7326 26.1813 23.0396 23.331 25.9997 21.3257C28.9599 19.3204 32.4399 18.25 36 18.25V0Z" fill="white"/>
<path d="M36 0C31.2724 -5.63759e-08 26.5911 0.931167 22.2233 2.74034C17.8557 4.5495 13.887 7.20125 10.5441 10.5441C7.20125 13.887 4.5495 17.8557 2.74034 22.2234C0.931166 26.5911 -7.13845e-07 31.2724 0 36H18C18 33.6363 18.4656 31.2956 19.3701 29.1117C20.2747 26.9278 21.6006 24.9435 23.2721 23.2721C24.9435 21.6006 26.9278 20.2747 29.1117 19.3701C31.2956 18.4656 33.6362 18 36 18V0Z" fill="#5CE1E6"/>
<path d="M36 48C42.0751 48 47 42.8513 47 36.5C47 30.1487 42.0751 25 36 25C29.9249 25 25 30.1487 25 36.5C25 42.8513 29.9249 48 36 48Z" fill="#5CE1E6"/>
<path d="M47 36C47 34.5555 46.7155 33.1251 46.1626 31.7905C45.6099 30.4559 44.7996 29.2433 43.7781 28.2219C42.7567 27.2004 41.5441 26.3901 40.2095 25.8374C38.8749 25.2846 37.4446 25 36 25C34.5554 25 33.1251 25.2846 31.7905 25.8374C30.4559 26.3901 29.2433 27.2004 28.2219 28.2219C27.2004 29.2433 26.3901 30.4559 25.8374 31.7905C25.2846 33.1251 25 34.5555 25 36H36H47Z" fill="white"/>
<path d="M93.2862 42.0241C93.16 41.5097 92.9611 41.0584 92.6893 40.6701C92.4175 40.2721 92.0778 39.9373 91.6701 39.6655C91.2721 39.384 90.8062 39.1753 90.2724 39.0394C89.7482 38.8938 89.1707 38.821 88.5398 38.821C87.1809 38.821 86.021 39.1462 85.06 39.7965C84.1088 40.4469 83.3808 41.3835 82.8761 42.6065C82.381 43.8295 82.1335 45.3049 82.1335 47.0327C82.1335 48.7798 82.3713 50.2746 82.8469 51.517C83.3226 52.7595 84.0311 53.7107 84.9727 54.3707C85.9142 55.0308 87.0838 55.3608 88.4815 55.3608C89.7143 55.3608 90.7383 55.1812 91.5536 54.8221C92.3787 54.4629 92.995 53.9534 93.4027 53.2933C93.8104 52.6333 94.0142 51.8568 94.0142 50.9638L95.4119 51.1094H88.598V45.3438H101.818V49.4787C101.818 52.1965 101.241 54.5212 100.086 56.4528C98.9402 58.3746 97.3581 59.85 95.3391 60.8789C93.3299 61.8981 91.0246 62.4077 88.4233 62.4077C85.5211 62.4077 82.9731 61.7913 80.7795 60.5586C78.5858 59.3259 76.8726 57.569 75.6399 55.288C74.4169 53.007 73.8054 50.294 73.8054 47.1491C73.8054 44.6837 74.1791 42.4998 74.9265 40.5973C75.6836 38.6948 76.7319 37.0884 78.0714 35.7781C79.4109 34.458 80.959 33.4631 82.7159 32.7933C84.4728 32.1139 86.3558 31.7741 88.3651 31.7741C90.1316 31.7741 91.772 32.0265 93.2862 32.5312C94.8101 33.0263 96.1545 33.7348 97.3192 34.657C98.4937 35.5694 99.4401 36.6516 100.158 37.9038C100.877 39.1559 101.313 40.5294 101.469 42.0241H93.2862ZM116.425 62.4077C114.037 62.4077 111.98 61.9515 110.252 61.0391C108.534 60.117 107.209 58.7969 106.277 57.0788C105.355 55.3511 104.894 53.2836 104.894 50.8764C104.894 48.5663 105.36 46.5473 106.292 44.8196C107.223 43.0919 108.539 41.7475 110.237 40.7866C111.936 39.8256 113.94 39.3452 116.25 39.3452C117.939 39.3452 119.468 39.6072 120.837 40.1314C122.205 40.6555 123.375 41.4175 124.346 42.4173C125.316 43.4073 126.064 44.6109 126.588 46.0281C127.112 47.4452 127.374 49.0419 127.374 50.8182V52.6818H107.398V48.2557H119.978C119.968 47.6151 119.803 47.0521 119.483 46.5668C119.172 46.0717 118.75 45.6883 118.216 45.4165C117.692 45.1351 117.095 44.9943 116.425 44.9943C115.775 44.9943 115.178 45.1351 114.634 45.4165C114.091 45.6883 113.654 46.0669 113.324 46.5522C113.004 47.0375 112.834 47.6053 112.814 48.2557V53.0312C112.814 53.7495 112.965 54.3902 113.266 54.9531C113.567 55.5161 113.999 55.9577 114.562 56.2781C115.124 56.5984 115.804 56.7585 116.6 56.7585C117.153 56.7585 117.658 56.6809 118.114 56.5256C118.58 56.3703 118.978 56.147 119.308 55.8558C119.638 55.5549 119.881 55.1958 120.036 54.7784H127.374C127.122 56.3314 126.525 57.6806 125.583 58.826C124.642 59.9616 123.394 60.8449 121.841 61.4759C120.298 62.0971 118.493 62.4077 116.425 62.4077ZM143.99 39.6364V45.4602H129.256V39.6364H143.99ZM132.11 34.2784H140.146V54.8075C140.146 55.1181 140.2 55.3802 140.307 55.5938C140.413 55.7976 140.578 55.9529 140.802 56.0597C141.025 56.1567 141.311 56.2053 141.661 56.2053C141.903 56.2053 142.185 56.1761 142.505 56.1179C142.835 56.0597 143.078 56.0111 143.233 55.9723L144.398 61.6214C144.039 61.7282 143.524 61.8593 142.855 62.0146C142.195 62.1699 141.408 62.2718 140.496 62.3203C138.652 62.4174 137.104 62.2281 135.851 61.7525C134.599 61.2672 133.658 60.5052 133.027 59.4666C132.396 58.428 132.09 57.1274 132.11 55.5646V34.2784Z" fill="white"/>
<path d="M147.153 62V32.1818H155.248V43.8295H165.964V32.1818H174.06V62H165.964V50.3523H155.248V62H147.153ZM178.02 62V39.6364H186.057V62H178.02ZM182.038 37.3068C180.951 37.3068 180.019 36.9477 179.243 36.2294C178.466 35.5111 178.078 34.6473 178.078 33.6378C178.078 32.6283 178.466 31.7644 179.243 31.0462C180.019 30.3279 180.951 29.9688 182.038 29.9688C183.135 29.9688 184.067 30.3279 184.834 31.0462C185.61 31.7644 185.998 32.6283 185.998 33.6378C185.998 34.6473 185.61 35.5111 184.834 36.2294C184.067 36.9477 183.135 37.3068 182.038 37.3068ZM190.152 62V39.6364H197.956V43.8878H198.189C198.596 42.3153 199.242 41.1651 200.125 40.4371C201.018 39.7092 202.061 39.3452 203.255 39.3452C203.605 39.3452 203.949 39.3743 204.289 39.4325C204.638 39.4811 204.973 39.5539 205.294 39.6509V46.5085C204.896 46.3726 204.406 46.2707 203.823 46.2028C203.241 46.1348 202.741 46.1009 202.324 46.1009C201.537 46.1009 200.829 46.2804 200.198 46.6396C199.577 46.989 199.086 47.484 198.727 48.1246C198.368 48.7556 198.189 49.4981 198.189 50.3523V62H190.152ZM217.364 62.4077C214.976 62.4077 212.918 61.9515 211.19 61.0391C209.472 60.117 208.147 58.7969 207.216 57.0788C206.293 55.3511 205.832 53.2836 205.832 50.8764C205.832 48.5663 206.298 46.5473 207.23 44.8196C208.162 43.0919 209.477 41.7475 211.176 40.7866C212.874 39.8256 214.879 39.3452 217.189 39.3452C218.878 39.3452 220.407 39.6072 221.775 40.1314C223.144 40.6555 224.313 41.4175 225.284 42.4173C226.255 43.4073 227.002 44.6109 227.526 46.0281C228.05 47.4452 228.312 49.0419 228.312 50.8182V52.6818H208.337V48.2557H220.916C220.906 47.6151 220.741 47.0521 220.421 46.5668C220.111 46.0717 219.688 45.6883 219.154 45.4165C218.63 45.1351 218.033 44.9943 217.364 44.9943C216.713 44.9943 216.116 45.1351 215.573 45.4165C215.029 45.6883 214.592 46.0669 214.262 46.5522C213.942 47.0375 213.772 47.6053 213.753 48.2557V53.0312C213.753 53.7495 213.903 54.3902 214.204 54.9531C214.505 55.5161 214.937 55.9577 215.5 56.2781C216.063 56.5984 216.742 56.7585 217.538 56.7585C218.092 56.7585 218.596 56.6809 219.053 56.5256C219.518 56.3703 219.916 56.147 220.246 55.8558C220.576 55.5549 220.819 55.1958 220.974 54.7784H228.312C228.06 56.3314 227.463 57.6806 226.522 58.826C225.58 59.9616 224.333 60.8449 222.78 61.4759C221.237 62.0971 219.431 62.4077 217.364 62.4077ZM239.687 62.2912C238.095 62.2912 236.63 61.8738 235.29 61.0391C233.96 60.2043 232.893 58.9376 232.087 57.239C231.291 55.5404 230.893 53.4001 230.893 50.8182C230.893 48.1198 231.311 45.9261 232.145 44.2372C232.99 42.5483 234.077 41.3107 235.407 40.5245C236.746 39.7383 238.154 39.3452 239.629 39.3452C240.736 39.3452 241.706 39.5393 242.541 39.9276C243.376 40.3061 244.075 40.8157 244.638 41.4563C245.2 42.0872 245.628 42.7812 245.919 43.5384H246.035V32.1818H254.072V62H246.093V58.331H245.919C245.608 59.0881 245.162 59.7675 244.579 60.3693C244.007 60.9614 243.308 61.4322 242.483 61.7816C241.667 62.1213 240.736 62.2912 239.687 62.2912ZM242.657 56.1179C243.395 56.1179 244.026 55.9044 244.55 55.4773C245.084 55.0405 245.492 54.429 245.773 53.6428C246.064 52.8468 246.21 51.9053 246.21 50.8182C246.21 49.7116 246.064 48.7653 245.773 47.979C245.492 47.1831 245.084 46.5765 244.55 46.1591C244.026 45.732 243.395 45.5185 242.657 45.5185C241.92 45.5185 241.289 45.732 240.765 46.1591C240.25 46.5765 239.852 47.1831 239.571 47.979C239.299 48.7653 239.163 49.7116 239.163 50.8182C239.163 51.9247 239.299 52.8759 239.571 53.6719C239.852 54.4581 240.25 55.0647 240.765 55.4918C241.289 55.9092 241.92 56.1179 242.657 56.1179Z" fill="#5CE1E6"/>
</svg>
